<svg width="46" height="46" viewBox="0 0 46 46" fill="none" xmlns="http://www.w3.org/2000/svg">
<path id="Vector" d="M23 46C10.2974 46 0 35.7024 0 23C0 10.2974 10.2974 0 23 0C35.7024 0 46 10.2974 46 23C46 35.7024 35.7024 46 23 46ZM23 41.4C33.1621 41.4 41.4 33.1621 41.4 23C41.4 12.838 33.1621 4.6 23 4.6C12.838 4.6 4.6 12.838 4.6 23C4.6 33.1621 12.838 41.4 23 41.4ZM39.1 12.65L11.5 39.1C10.1604 38.3083 7.69157 35.8395 6.9 34.5L34.5 8.63563C35.8395 9.4272 38.3083 11.3104 39.1 12.65Z" fill="#FF2525"/>
</svg>
