<svg width="50" height="50" viewBox="0 0 50 50" fill="none" xmlns="http://www.w3.org/2000/svg">
<g id="Frame">
<path id="Vector" d="M16.6667 8.33335H43.75V12.5H16.6667V8.33335ZM9.375 13.5417C7.6491 13.5417 6.25 12.1426 6.25 10.4167C6.25 8.69079 7.6491 7.29169 9.375 7.29169C11.1009 7.29169 12.5 8.69079 12.5 10.4167C12.5 12.1426 11.1009 13.5417 9.375 13.5417ZM9.375 28.125C7.6491 28.125 6.25 26.7259 6.25 25C6.25 23.2742 7.6491 21.875 9.375 21.875C11.1009 21.875 12.5 23.2742 12.5 25C12.5 26.7259 11.1009 28.125 9.375 28.125ZM9.375 42.5C7.6491 42.5 6.25 41.1009 6.25 39.375C6.25 37.6492 7.6491 36.25 9.375 36.25C11.1009 36.25 12.5 37.6492 12.5 39.375C12.5 41.1009 11.1009 42.5 9.375 42.5ZM16.6667 22.9167H43.75V27.0834H16.6667V22.9167ZM16.6667 37.5H43.75V41.6667H16.6667V37.5Z" fill="#0EA489"/>
</g>
</svg>
