<svg width="50" height="50" viewBox="0 0 50 50" fill="none" xmlns="http://www.w3.org/2000/svg">
<g id="Frame">
<path id="Vector" d="M14.5834 8.33332V41.6667H35.4167V8.33332H14.5834ZM12.5001 4.16666H37.5001C38.6507 4.16666 39.5834 5.09941 39.5834 6.24999V43.75C39.5834 44.9006 38.6507 45.8333 37.5001 45.8333H12.5001C11.3495 45.8333 10.4167 44.9006 10.4167 43.75V6.24999C10.4167 5.09941 11.3495 4.16666 12.5001 4.16666ZM25.0001 35.4167C26.1507 35.4167 27.0834 36.3494 27.0834 37.5C27.0834 38.6506 26.1507 39.5833 25.0001 39.5833C23.8495 39.5833 22.9167 38.6506 22.9167 37.5C22.9167 36.3494 23.8495 35.4167 25.0001 35.4167Z" fill="#0EA489"/>
</g>
</svg>
