<svg width="50" height="50" viewBox="0 0 50 50" fill="none" xmlns="http://www.w3.org/2000/svg">
<g id="Frame">
<path id="Vector" d="M12.8557 37.5C13.7137 35.0725 16.0288 33.3333 18.7501 33.3333C21.4713 33.3333 23.7865 35.0725 24.6445 37.5H45.8334V41.6667H24.6445C23.7865 44.0942 21.4713 45.8333 18.7501 45.8333C16.0288 45.8333 13.7137 44.0942 12.8557 41.6667H4.16675V37.5H12.8557ZM25.3557 22.9167C26.2136 20.4892 28.5288 18.75 31.2501 18.75C33.9713 18.75 36.2865 20.4892 37.1445 22.9167H45.8334V27.0833H37.1445C36.2865 29.5108 33.9713 31.25 31.2501 31.25C28.5288 31.25 26.2136 29.5108 25.3557 27.0833H4.16675V22.9167H25.3557ZM12.8557 8.33332C13.7137 5.90584 16.0288 4.16666 18.7501 4.16666C21.4713 4.16666 23.7865 5.90584 24.6445 8.33332H45.8334V12.5H24.6445C23.7865 14.9275 21.4713 16.6667 18.7501 16.6667C16.0288 16.6667 13.7137 14.9275 12.8557 12.5H4.16675V8.33332H12.8557ZM18.7501 12.5C19.9007 12.5 20.8334 11.5672 20.8334 10.4167C20.8334 9.26607 19.9007 8.33332 18.7501 8.33332C17.5995 8.33332 16.6667 9.26607 16.6667 10.4167C16.6667 11.5672 17.5995 12.5 18.7501 12.5ZM31.2501 27.0833C32.4007 27.0833 33.3334 26.1506 33.3334 25C33.3334 23.8494 32.4007 22.9167 31.2501 22.9167C30.0995 22.9167 29.1667 23.8494 29.1667 25C29.1667 26.1506 30.0995 27.0833 31.2501 27.0833ZM18.7501 41.6667C19.9007 41.6667 20.8334 40.734 20.8334 39.5833C20.8334 38.4327 19.9007 37.5 18.7501 37.5C17.5995 37.5 16.6667 38.4327 16.6667 39.5833C16.6667 40.734 17.5995 41.6667 18.7501 41.6667Z" fill="#0EA489"/>
</g>
</svg>
