<svg width="50" height="50" viewBox="0 0 50 50" fill="none" xmlns="http://www.w3.org/2000/svg">
<g id="Frame">
<path id="Vector" d="M10.4167 9.59237V28.7269C10.4167 31.5131 11.8092 34.115 14.1275 35.6606L25 42.909L35.8725 35.6606C38.1908 34.115 39.5833 31.5131 39.5833 28.7269V9.59237L25 6.35165L10.4167 9.59237ZM7.8814 5.88746L25 2.08333L42.1185 5.88746C43.0719 6.09929 43.75 6.94473 43.75 7.92119V28.7269C43.75 32.9062 41.6612 36.8092 38.1837 39.1275L25 47.9167L11.8162 39.1275C8.33877 36.8092 6.25 32.9062 6.25 28.7269V7.92119C6.25 6.94473 6.92819 6.09929 7.8814 5.88746ZM25 28.125L18.8772 31.344L20.0466 24.526L15.0932 19.6977L21.9385 18.703L25 12.5L28.0615 18.703L34.9069 19.6977L29.9533 24.526L31.1227 31.344L25 28.125Z" fill="#0EA489"/>
</g>
</svg>
