<svg width="50" height="50" viewBox="0 0 50 50" fill="none" xmlns="http://www.w3.org/2000/svg">
<g id="Frame">
<path id="Vector" d="M45.8334 35.4212C45.8313 41.4023 41.6284 46.4012 36.0151 47.6283L34.6859 43.6408C37.1943 43.2314 39.3261 41.7023 40.552 39.5833H35.4167C33.1155 39.5833 31.2501 37.7179 31.2501 35.4167V27.0833C31.2501 24.7821 33.1155 22.9167 35.4167 22.9167H41.5378C40.5126 14.6952 33.4993 8.33332 25.0001 8.33332C16.5009 8.33332 9.48756 14.6952 8.46235 22.9167H14.5834C16.8846 22.9167 18.7501 24.7821 18.7501 27.0833V35.4167C18.7501 37.7179 16.8846 39.5833 14.5834 39.5833H8.33342C6.03223 39.5833 4.16675 37.7179 4.16675 35.4167V25C4.16675 13.4941 13.4941 4.16666 25.0001 4.16666C36.5059 4.16666 45.8334 13.4941 45.8334 25V27.0806V27.0833V35.4167V35.4212ZM41.6668 35.4167V27.0833H35.4167V35.4167H41.6668ZM8.33342 27.0833V35.4167H14.5834V27.0833H8.33342Z" fill="#0EA489"/>
</g>
</svg>
