<svg width="50" height="50" viewBox="0 0 50 50" fill="none" xmlns="http://www.w3.org/2000/svg">
<g id="Frame">
<path id="Vector" d="M10.4166 4.16667H39.5833C40.7339 4.16667 41.6666 5.09942 41.6666 6.25V46.1319C41.6666 46.7071 41.2001 47.1737 40.6249 47.1737C40.4293 47.1737 40.2374 47.1183 40.0716 47.0144L24.9999 37.5652L9.92823 47.0144C9.44081 47.32 8.79796 47.1727 8.49236 46.6852C8.3884 46.5194 8.33325 46.3277 8.33325 46.1319V6.25C8.33325 5.09942 9.266 4.16667 10.4166 4.16667ZM37.4999 8.33333H12.4999V40.4842L24.9999 32.6473L37.4999 40.4842V8.33333ZM16.6666 18.75H33.3333V22.9167H16.6666V18.75Z" fill="#0EA489"/>
</g>
</svg>
