<svg width="50" height="50" viewBox="0 0 50 50" fill="none" xmlns="http://www.w3.org/2000/svg">
<g id="Frame">
<path id="Vector" d="M29.1666 29.6917V34.0446C27.8633 33.584 26.461 33.3333 24.9999 33.3333C18.0964 33.3333 12.4999 38.9298 12.4999 45.8333H8.33325C8.33325 36.6285 15.7952 29.1667 24.9999 29.1667C26.4387 29.1667 27.8349 29.349 29.1666 29.6917ZM24.9999 27.0833C18.0937 27.0833 12.4999 21.4896 12.4999 14.5833C12.4999 7.67708 18.0937 2.08333 24.9999 2.08333C31.9062 2.08333 37.4999 7.67708 37.4999 14.5833C37.4999 21.4896 31.9062 27.0833 24.9999 27.0833ZM24.9999 22.9167C29.6041 22.9167 33.3333 19.1875 33.3333 14.5833C33.3333 9.97917 29.6041 6.25 24.9999 6.25C20.3958 6.25 16.6666 9.97917 16.6666 14.5833C16.6666 19.1875 20.3958 22.9167 24.9999 22.9167ZM40.4549 35.4167H47.9253V39.5833H40.4549L44.2643 43.3925L41.3178 46.3388L32.4791 37.5L41.3178 28.6613L44.2643 31.6075L40.4549 35.4167Z" fill="#0EA489"/>
</g>
</svg>
