<svg width="69" height="62" viewBox="0 0 69 62" fill="none" xmlns="http://www.w3.org/2000/svg">
<path id="Vector" d="M33.4676 62H1.38296C0.619565 62 0 61.3812 0 60.617V20.0758C0 19.3116 0.619565 18.6929 1.38296 18.6929H25.7768C28.368 15.6804 31.808 13.3491 36.3694 12.3953L36.1711 9.81505C36.1324 9.31719 36.3663 8.8375 36.7812 8.55933C37.1968 8.28195 37.7295 8.24876 38.1752 8.47635L44.468 11.6658C44.5858 11.7251 44.6933 11.801 44.7873 11.8887C44.7873 11.8721 44.7873 11.8555 44.7873 11.8389C44.7873 5.31056 50.0979 0 56.6262 0C63.1546 0 68.4651 5.31135 68.4651 11.8389C68.4651 18.3665 63.1546 23.677 56.6262 23.677C50.7459 23.677 45.8526 19.3677 44.9398 13.7411C44.8758 13.8241 44.8015 13.9015 44.7178 13.9695L39.0287 18.6241C38.6304 18.9505 38.0835 19.0287 37.6094 18.8256C37.1352 18.6225 36.8136 18.1737 36.774 17.6592L36.5828 15.1809C33.8343 15.821 31.5583 17.0625 29.6743 18.6921H33.466C34.2294 18.6921 34.849 19.3108 34.849 20.075V60.6163C34.8506 61.3804 34.231 62 33.4676 62ZM2.76592 59.2341H32.0846V21.4588H27.091C20.1888 30.4915 20.6503 45.3982 20.6574 45.6029C20.6819 46.2366 20.2718 46.8056 19.6633 46.9834C19.0532 47.1597 18.402 46.9013 18.082 46.3544C18.0227 46.2532 12.3328 36.7053 2.76592 34.4554V59.2341V59.2341ZM2.76592 31.6239C9.98654 33.078 15.1786 38.0669 18.0077 41.5172C18.3412 36.533 19.5455 28.063 23.7363 21.4588H2.76592V31.6239ZM51.4903 19.3148C52.9515 20.3208 54.7209 20.9119 56.6262 20.9119C58.5545 20.9119 60.3452 20.3066 61.8167 19.2777C59.8394 17.253 58.7283 14.6072 58.7283 11.8342C58.7283 9.05245 59.8347 6.41772 61.8095 4.39623C60.3389 3.36889 58.5513 2.76592 56.6262 2.76592C54.7217 2.76592 52.9515 3.35624 51.4903 4.36304C53.4343 6.40349 54.5233 9.05245 54.5233 11.8389C54.5241 14.6238 53.4343 17.2743 51.4903 19.3148ZM49.4767 6.25888C48.2724 7.79831 47.5532 9.73603 47.5532 11.8389C47.5532 13.9418 48.2716 15.8779 49.4759 17.4182C50.9379 15.8874 51.7574 13.9102 51.7574 11.8381C51.7574 9.76606 50.9387 7.78961 49.4767 6.25888ZM63.8121 6.30471C62.3264 7.81569 61.4942 9.77554 61.4942 11.8334C61.4942 13.8857 62.3303 15.8527 63.8168 17.366C64.9967 15.8345 65.6992 13.9173 65.6992 11.8389C65.6992 9.75736 64.9951 7.83703 63.8121 6.30471ZM39.118 12.0547L39.3298 14.8048L41.3244 13.1729L39.118 12.0547Z" fill="#0EA489"/>
</svg>
