<svg xmlns="http://www.w3.org/2000/svg" width="176" height="34" viewBox="0 0 176 34" fill="none">
	<g clip-path="url(#clip0_133_3276)">
		<path d="M51.2063 25.0591C50.0123 25.0591 48.8847 24.8275 47.8234 24.3644C46.7622 23.9013 45.8335 23.2644 45.0376 22.454C44.2416 21.6269 43.6115 20.6759 43.1472 19.6007C42.6994 18.509 42.4756 17.3429 42.4756 16.1024C42.4756 14.8619 42.6994 13.704 43.1472 12.6289C43.6115 11.5537 44.2416 10.6109 45.0376 9.80045C45.8501 8.97342 46.7953 8.33661 47.8732 7.89002C48.9676 7.42688 50.145 7.19531 51.4052 7.19531C52.7816 7.19531 54.0584 7.45996 55.2358 7.98926C56.4131 8.51856 57.3998 9.27115 58.1958 10.247L56.2556 12.1823C55.7416 11.4545 55.0534 10.9004 54.1911 10.52C53.3288 10.123 52.4002 9.9245 51.4052 9.9245C50.2113 9.9245 49.1583 10.1892 48.2463 10.7184C47.3508 11.2312 46.6544 11.9507 46.1569 12.877C45.6594 13.8033 45.4107 14.8784 45.4107 16.1024C45.4107 17.3264 45.6594 18.4098 46.1569 19.3526C46.6709 20.2789 47.3591 21.0067 48.2214 21.536C49.0837 22.0653 50.0621 22.3299 51.1565 22.3299C52.3173 22.3299 53.3122 22.1232 54.1413 21.7096C54.9871 21.2796 55.6338 20.651 56.0815 19.824C56.5292 18.9804 56.7531 17.9467 56.7531 16.7227L58.544 18.0128H51.1068V15.4077H59.7131V15.8047C59.7131 17.8722 59.3399 19.5924 58.5937 20.9653C57.8641 22.3382 56.8609 23.3637 55.584 24.0419C54.3072 24.72 52.8479 25.0591 51.2063 25.0591ZM66.8383 25.0591C65.8268 25.0591 64.9231 24.8358 64.1271 24.3892C63.3477 23.9426 62.7342 23.3306 62.2865 22.5532C61.8553 21.7593 61.6397 20.8495 61.6397 19.824V12.9018H64.3759V19.7C64.3759 20.2789 64.4671 20.7751 64.6495 21.1886C64.8485 21.5856 65.1304 21.8916 65.4952 22.1066C65.8766 22.3216 66.3243 22.4292 66.8383 22.4292C67.6343 22.4292 68.2396 22.1976 68.6541 21.7344C69.0853 21.2548 69.3008 20.5766 69.3008 19.7V12.9018H72.0369V19.824C72.0369 20.8661 71.8131 21.7841 71.3654 22.578C70.9342 23.3554 70.329 23.9674 69.5496 24.414C68.7702 24.8441 67.8665 25.0591 66.8383 25.0591ZM76.3551 24.811V7.93964H79.0912V24.811H76.3551ZM73.4946 15.3829V12.9018H81.9517V15.3829H73.4946ZM88.8978 25.0591C87.7039 25.0591 86.626 24.7944 85.6642 24.2652C84.719 23.7193 83.9645 22.975 83.4007 22.0322C82.8535 21.0894 82.5799 20.0308 82.5799 18.8564C82.5799 17.682 82.8535 16.6317 83.4007 15.7054C83.9479 14.7626 84.6859 14.0183 85.6145 13.4724C86.5597 12.9266 87.6044 12.6537 88.7486 12.6537C89.8596 12.6537 90.838 12.9101 91.6837 13.4228C92.5463 13.9356 93.2179 14.6386 93.6988 15.5317C94.1963 16.4249 94.445 17.4422 94.445 18.5835C94.445 18.782 94.4284 18.9887 94.3953 19.2037C94.3787 19.4022 94.3455 19.6255 94.2958 19.8736H84.4952V17.6407H92.878L91.8578 18.5339C91.8246 17.8061 91.6837 17.1941 91.4349 16.6979C91.1862 16.2016 90.8297 15.8212 90.3654 15.5566C89.9176 15.2919 89.3621 15.1596 88.6988 15.1596C88.0024 15.1596 87.3971 15.3084 86.883 15.6062C86.369 15.9039 85.971 16.3257 85.6891 16.8715C85.4072 17.4008 85.2663 18.0376 85.2663 18.782C85.2663 19.5263 85.4155 20.1796 85.714 20.742C86.0125 21.3044 86.4353 21.7427 86.9825 22.057C87.5298 22.3547 88.1599 22.5036 88.8729 22.5036C89.4865 22.5036 90.0503 22.3961 90.5643 22.181C91.095 21.966 91.5427 21.6517 91.9075 21.2382L93.649 22.9998C93.0687 23.678 92.3639 24.1907 91.5344 24.5381C90.7053 24.8854 89.8264 25.0591 88.8978 25.0591ZM104.572 24.811V17.9384C104.572 17.1444 104.315 16.4911 103.801 15.9783C103.304 15.4656 102.657 15.2092 101.861 15.2092C101.33 15.2092 100.858 15.325 100.443 15.5566C100.029 15.7881 99.7053 16.1107 99.4732 16.5242C99.241 16.9377 99.1249 17.4091 99.1249 17.9384L98.0554 17.3429C98.0554 16.4332 98.2544 15.631 98.6523 14.9363C99.0503 14.225 99.5975 13.6709 100.294 13.274C101.007 12.8604 101.803 12.6537 102.682 12.6537C103.577 12.6537 104.373 12.8853 105.07 13.3484C105.766 13.795 106.313 14.3822 106.711 15.11C107.109 15.8212 107.308 16.5655 107.308 17.3429V24.811H104.572ZM96.3888 24.811V12.9018H99.1249V24.811H96.3888ZM114.84 25.0591C113.763 25.0591 112.784 24.7862 111.905 24.2403C111.043 23.6945 110.355 22.9584 109.841 22.0322C109.343 21.0894 109.095 20.039 109.095 18.8812C109.095 17.7068 109.343 16.6565 109.841 15.7302C110.355 14.7874 111.043 14.0431 111.905 13.4973C112.784 12.9349 113.763 12.6537 114.84 12.6537C115.753 12.6537 116.557 12.8522 117.253 13.2492C117.966 13.6296 118.53 14.1589 118.945 14.837C119.359 15.5152 119.567 16.2843 119.567 17.1444V20.5683C119.567 21.4284 119.359 22.1976 118.945 22.8757C118.547 23.5539 117.991 24.0915 117.278 24.4884C116.565 24.8689 115.753 25.0591 114.84 25.0591ZM115.288 22.4788C116.3 22.4788 117.112 22.1397 117.726 21.4615C118.356 20.7834 118.671 19.915 118.671 18.8564C118.671 18.1452 118.53 17.5166 118.248 16.9708C117.966 16.4249 117.568 16.0032 117.054 15.7054C116.557 15.3912 115.968 15.234 115.288 15.234C114.625 15.234 114.036 15.3912 113.522 15.7054C113.025 16.0032 112.627 16.4249 112.328 16.9708C112.046 17.5166 111.905 18.1452 111.905 18.8564C111.905 19.5676 112.046 20.1962 112.328 20.742C112.627 21.2879 113.025 21.7179 113.522 22.0322C114.036 22.3299 114.625 22.4788 115.288 22.4788ZM118.497 24.811V21.6104L118.97 18.7075L118.497 15.8295V12.9018H121.233V24.811H118.497Z" fill="white"/>
		<path d="M5.83695 16.5407H0.00292969L15.6633 0.919922V6.69372L5.83695 16.5407Z" fill="#0DA88C"/>
		<path d="M27.3323 16.5397H33.1663L17.5059 0.918945V6.69275L27.3323 16.5397Z" fill="#0DA88C"/>
		<path d="M5.83401 18.377H0L15.6604 33.9978V28.224L5.83401 18.377Z" fill="#0DA88C"/>
		<path d="M27.3293 18.3794H33.1633L17.5029 34.0002V28.2263L27.3293 18.3794Z" fill="#0DA88C"/>
		<path d="M28.7105 21.9658H16.5303V18.3771H28.7105V21.9658Z" fill="#0DA88C"/>
		<path d="M165.825 7.81055H138.187C133.099 7.81055 128.975 11.9247 128.975 16.9997C128.975 22.0748 133.099 26.1889 138.187 26.1889H165.825C170.912 26.1889 175.037 22.0748 175.037 16.9997C175.037 11.9247 170.912 7.81055 165.825 7.81055Z" fill="#F6B642"/>
		<path d="M137.251 20.6757V13.0229H138.29V20.6757H137.251ZM137.958 17.3125V16.3641H141.96V17.3125H137.958ZM137.958 13.9713V13.0229H142.148V13.9713H137.958ZM145.519 20.786C145.003 20.786 144.539 20.6647 144.126 20.4221C143.714 20.1795 143.386 19.8524 143.142 19.4407C142.899 19.0217 142.778 18.5548 142.778 18.0402C142.778 17.533 142.899 17.0772 143.142 16.6729C143.386 16.2612 143.714 15.9341 144.126 15.6915C144.539 15.4489 145.003 15.3276 145.519 15.3276C146.028 15.3276 146.488 15.4489 146.901 15.6915C147.321 15.9267 147.653 16.2502 147.896 16.6619C148.139 17.0735 148.261 17.533 148.261 18.0402C148.261 18.5548 148.139 19.0217 147.896 19.4407C147.653 19.8524 147.321 20.1795 146.901 20.4221C146.488 20.6647 146.028 20.786 145.519 20.786ZM145.519 19.8266C145.851 19.8266 146.146 19.7494 146.404 19.5951C146.662 19.4407 146.864 19.2312 147.012 18.9665C147.159 18.6945 147.233 18.3858 147.233 18.0402C147.233 17.7021 147.155 17.4007 147.001 17.136C146.853 16.8714 146.65 16.6655 146.393 16.5185C146.142 16.3641 145.851 16.287 145.519 16.287C145.188 16.287 144.893 16.3641 144.635 16.5185C144.377 16.6655 144.174 16.8714 144.027 17.136C143.879 17.4007 143.806 17.7021 143.806 18.0402C143.806 18.3858 143.879 18.6945 144.027 18.9665C144.174 19.2312 144.377 19.4407 144.635 19.5951C144.893 19.7494 145.188 19.8266 145.519 19.8266ZM149.381 20.6757V15.4379H150.376V20.6757H149.381ZM150.376 17.6874L150 17.522C150 16.853 150.155 16.32 150.464 15.9231C150.774 15.5261 151.22 15.3276 151.802 15.3276C152.067 15.3276 152.307 15.3754 152.521 15.4709C152.734 15.5592 152.933 15.7099 153.118 15.9231L152.465 16.5957C152.355 16.4781 152.233 16.3935 152.101 16.3421C151.968 16.2906 151.813 16.2649 151.636 16.2649C151.268 16.2649 150.966 16.3825 150.73 16.6178C150.494 16.853 150.376 17.2095 150.376 17.6874ZM153.84 20.6757V15.4379H154.835V20.6757H153.84ZM157.389 20.6757V17.5109C157.389 17.1213 157.267 16.8162 157.024 16.5957C156.788 16.3678 156.489 16.2539 156.128 16.2539C155.885 16.2539 155.668 16.3053 155.476 16.4082C155.284 16.5112 155.13 16.6545 155.012 16.8383C154.894 17.0221 154.835 17.2426 154.835 17.4999L154.426 17.3014C154.426 16.9045 154.511 16.559 154.68 16.2649C154.857 15.9708 155.096 15.7429 155.399 15.5812C155.701 15.4121 156.04 15.3276 156.416 15.3276C156.784 15.3276 157.116 15.4085 157.411 15.5702C157.713 15.7319 157.949 15.9598 158.118 16.2539C158.295 16.5479 158.383 16.8971 158.383 17.3014V20.6757H157.389ZM160.937 20.6757V17.5109C160.937 17.1213 160.816 16.8162 160.572 16.5957C160.337 16.3678 160.042 16.2539 159.688 16.2539C159.445 16.2539 159.224 16.3053 159.025 16.4082C158.833 16.5112 158.678 16.6545 158.56 16.8383C158.442 17.0221 158.383 17.2426 158.383 17.4999L157.82 17.3014C157.842 16.8971 157.949 16.5516 158.14 16.2649C158.339 15.9708 158.594 15.7429 158.903 15.5812C159.213 15.4121 159.552 15.3276 159.92 15.3276C160.303 15.3276 160.646 15.4085 160.948 15.5702C161.25 15.7319 161.49 15.9598 161.667 16.2539C161.851 16.5479 161.943 16.9008 161.943 17.3125V20.6757H160.937ZM164.967 20.786C164.672 20.786 164.392 20.7492 164.127 20.6757C163.869 20.5948 163.629 20.4846 163.408 20.3449C163.187 20.1979 162.995 20.0251 162.833 19.8266L163.474 19.1871C163.666 19.4223 163.887 19.5987 164.138 19.7164C164.388 19.8266 164.668 19.8818 164.978 19.8818C165.287 19.8818 165.527 19.8303 165.696 19.7274C165.866 19.6171 165.951 19.4664 165.951 19.2753C165.951 19.0841 165.881 18.9371 165.741 18.8342C165.608 18.7239 165.435 18.6357 165.221 18.5695C165.007 18.496 164.779 18.4262 164.536 18.36C164.3 18.2865 164.075 18.1946 163.861 18.0844C163.647 17.9741 163.471 17.8234 163.331 17.6322C163.198 17.4411 163.132 17.1875 163.132 16.8714C163.132 16.5553 163.209 16.2833 163.364 16.0554C163.519 15.8201 163.732 15.64 164.005 15.5151C164.285 15.3901 164.62 15.3276 165.011 15.3276C165.424 15.3276 165.788 15.4011 166.105 15.5481C166.43 15.6878 166.695 15.901 166.901 16.1877L166.26 16.8273C166.113 16.6361 165.928 16.4891 165.707 16.3862C165.494 16.2833 165.25 16.2318 164.978 16.2318C164.69 16.2318 164.469 16.2833 164.314 16.3862C164.167 16.4818 164.093 16.6178 164.093 16.7942C164.093 16.9706 164.16 17.1066 164.292 17.2022C164.425 17.2978 164.598 17.3786 164.812 17.4448C165.033 17.5109 165.262 17.5808 165.497 17.6543C165.733 17.7205 165.958 17.8124 166.172 17.93C166.385 18.0476 166.559 18.2057 166.691 18.4041C166.831 18.6026 166.901 18.8636 166.901 19.1871C166.901 19.6796 166.724 20.0692 166.371 20.3559C166.024 20.6426 165.556 20.786 164.967 20.786Z" fill="#21222F"/>
	</g>
	<defs>
		<clipPath id="clip0_133_3276">
			<rect width="175.037" height="34" fill="white"/>
		</clipPath>
	</defs>
</svg>
