<svg width="36" height="36" viewBox="0 0 36 36" fill="none" xmlns="http://www.w3.org/2000/svg">
<g id="Frame">
<path id="Vector" d="M14.6169 32.6169C7.96197 31.0829 3 25.121 3 18C3 9.71572 9.71572 3 18 3C26.2842 3 33 9.71572 33 18C33 25.121 28.038 31.0829 21.3831 32.6169L18 36L14.6169 32.6169ZM10.5176 27.3851C11.8867 28.479 13.5065 29.2822 15.2908 29.6936L16.1297 29.8869L18 31.7574L19.8703 29.8869L20.7092 29.6936C22.6117 29.2549 24.3275 28.3708 25.7514 27.1637C23.8448 25.2117 21.1838 24 18.2396 24C15.1857 24 12.4362 25.3038 10.5176 27.3851ZM8.42343 25.2321C10.8847 22.6262 14.3722 21 18.2396 21C21.966 21 25.3397 22.5098 27.7824 24.951C29.1845 22.9778 30 20.5711 30 18C30 11.3726 24.6275 6 18 6C11.3726 6 6 11.3726 6 18C6 20.6946 6.89562 23.2083 8.42343 25.2321ZM18 19.5C14.6863 19.5 12 16.8137 12 13.5C12 10.1863 14.6863 7.5 18 7.5C21.3137 7.5 24 10.1863 24 13.5C24 16.8137 21.3137 19.5 18 19.5ZM18 16.5C19.6569 16.5 21 15.1569 21 13.5C21 11.8431 19.6569 10.5 18 10.5C16.3431 10.5 15 11.8431 15 13.5C15 15.1569 16.3431 16.5 18 16.5Z" fill="#0EA489"/>
</g>
</svg>
