<svg width="36" height="36" viewBox="0 0 36 36" fill="none" xmlns="http://www.w3.org/2000/svg">
<g id="Frame">
<path id="Vector" d="M30 18C30 11.3726 24.6275 6 18 6C11.3726 6 6 11.3726 6 18C6 24.6275 11.3726 30 18 30C20.4627 30 22.7522 29.2581 24.6572 27.9857L26.3214 30.4821C23.9403 32.0727 21.0784 33 18 33C9.71572 33 3 26.2842 3 18C3 9.71572 9.71572 3 18 3C26.2842 3 33 9.71572 33 18V20.25C33 23.1495 30.6495 25.5 27.75 25.5C25.9437 25.5 24.3504 24.5877 23.4057 23.1989C22.0413 24.6173 20.1237 25.5 18 25.5C13.8579 25.5 10.5 22.1421 10.5 18C10.5 13.8579 13.8579 10.5 18 10.5C19.6887 10.5 21.247 11.0581 22.5007 12H25.5V20.25C25.5 21.4926 26.5074 22.5 27.75 22.5C28.9926 22.5 30 21.4926 30 20.25V18ZM18 13.5C15.5147 13.5 13.5 15.5147 13.5 18C13.5 20.4853 15.5147 22.5 18 22.5C20.4853 22.5 22.5 20.4853 22.5 18C22.5 15.5147 20.4853 13.5 18 13.5Z" fill="#0EA489"/>
</g>
</svg>
