<svg width="36" height="36" viewBox="0 0 36 36" fill="none" xmlns="http://www.w3.org/2000/svg">
<g id="Frame">
<path id="Vector" d="M26.4858 22.2423L24.3644 20.121L26.4858 17.9997C28.8289 15.6565 28.8289 11.8576 26.4858 9.51444C24.1427 7.17129 20.3436 7.17129 18.0005 9.51444L15.8791 11.6358L13.7578 9.51444L15.8791 7.39312C19.3938 3.8784 25.0923 3.8784 28.6071 7.39312C32.1217 10.9078 32.1217 16.6063 28.6071 20.121L26.4858 22.2423ZM22.243 26.485L20.1217 28.6063C16.6071 32.121 10.9086 32.121 7.39385 28.6063C3.87914 25.0915 3.87914 19.393 7.39385 15.8784L9.51517 13.7571L11.6365 15.8784L9.51517 17.9997C7.17202 20.3428 7.17202 24.1419 9.51517 26.485C11.8583 28.8282 15.6573 28.8282 18.0005 26.485L20.1217 24.3637L22.243 26.485ZM22.243 11.6358L24.3644 13.7571L13.7578 24.3637L11.6365 22.2423L22.243 11.6358Z" fill="#0EA489"/>
</g>
</svg>
