<svg width="36" height="36" viewBox="0 0 36 36" fill="none" xmlns="http://www.w3.org/2000/svg">
<g id="Frame">
<path id="Vector" d="M14.0483 16.0232C15.453 18.4932 17.5068 20.547 19.9768 21.9516L21.3036 20.0942C21.7448 19.4768 22.5774 19.2859 23.2434 19.6497C25.3536 20.8025 27.6856 21.503 30.1183 21.6956C30.8985 21.7574 31.5 22.4083 31.5 23.1909V29.8851C31.5 30.6542 30.9183 31.2985 30.1533 31.3772C29.3584 31.4589 28.5565 31.5 27.75 31.5C14.9094 31.5 4.5 21.0906 4.5 8.25C4.5 7.44341 4.54113 6.64156 4.62284 5.84664C4.70145 5.08162 5.34591 4.5 6.11498 4.5H12.8091C13.5917 4.5 14.2427 5.10156 14.3044 5.88163C14.497 8.31432 15.1975 10.6465 16.3503 12.7567C16.7141 13.4226 16.5232 14.2553 15.9058 14.6964L14.0483 16.0232ZM10.2664 15.0378L13.1163 13.0021C12.3082 11.2577 11.7544 9.40774 11.4709 7.5H7.5136C7.50454 7.74948 7.5 7.9995 7.5 8.25C7.5 19.4337 16.5663 28.5 27.75 28.5C28.0005 28.5 28.2505 28.4955 28.5 28.4864V24.529C26.5923 24.2455 24.7423 23.6917 22.9978 22.8837L20.9622 25.7337C20.1387 25.4137 19.3434 25.0372 18.5811 24.6091L18.4939 24.5595C15.5546 22.888 13.112 20.4454 11.4405 17.5061L11.3909 17.4189C10.9627 16.6566 10.5863 15.8613 10.2664 15.0378Z" fill="#0EA489"/>
</g>
</svg>
