<svg width="36" height="36" viewBox="0 0 36 36" fill="none" xmlns="http://www.w3.org/2000/svg">
<g id="Frame">
<path id="Vector" d="M12.75 10.5C12.75 8.84314 11.4069 7.5 9.75 7.5C8.09314 7.5 6.75 8.84314 6.75 10.5C6.75 12.1569 8.09314 13.5 9.75 13.5C11.4069 13.5 12.75 12.1569 12.75 10.5ZM15.75 10.5C15.75 13.8137 13.0637 16.5 9.75 16.5C6.43629 16.5 3.75 13.8137 3.75 10.5C3.75 7.18629 6.43629 4.5 9.75 4.5C13.0637 4.5 15.75 7.18629 15.75 10.5ZM31.5 6H19.5V9H31.5V6ZM31.5 16.5H19.5V19.5H31.5V16.5ZM31.5 27H19.5V30H31.5V27ZM9.75 28.5C8.09314 28.5 6.75 27.1569 6.75 25.5C6.75 23.8431 8.09314 22.5 9.75 22.5C11.4069 22.5 12.75 23.8431 12.75 25.5C12.75 27.1569 11.4069 28.5 9.75 28.5ZM9.75 31.5C13.0637 31.5 15.75 28.8137 15.75 25.5C15.75 22.1863 13.0637 19.5 9.75 19.5C6.43629 19.5 3.75 22.1863 3.75 25.5C3.75 28.8137 6.43629 31.5 9.75 31.5ZM9.75 12C10.5784 12 11.25 11.3284 11.25 10.5C11.25 9.67158 10.5784 9 9.75 9C8.92158 9 8.25 9.67158 8.25 10.5C8.25 11.3284 8.92158 12 9.75 12Z" fill="#0EA489"/>
</g>
</svg>
