<svg width="36" height="36" viewBox="0 0 36 36" fill="none" xmlns="http://www.w3.org/2000/svg">
<g id="Frame">
<path id="Vector" d="M18 35.5919L8.45406 26.046C3.18198 20.7738 3.18198 12.2261 8.45406 6.95406C13.7261 1.68198 22.2738 1.68198 27.546 6.95406C32.8181 12.2261 32.8181 20.7738 27.546 26.046L18 35.5919ZM25.4245 23.9246C29.5251 19.8242 29.5251 13.1759 25.4245 9.07538C21.3242 4.97487 14.6759 4.97487 10.5754 9.07538C6.47487 13.1759 6.47487 19.8242 10.5754 23.9246L18 31.3493L25.4245 23.9246ZM18 19.5C16.3431 19.5 15 18.1569 15 16.5C15 14.8431 16.3431 13.5 18 13.5C19.6569 13.5 21 14.8431 21 16.5C21 18.1569 19.6569 19.5 18 19.5Z" fill="#0EA489"/>
</g>
</svg>
